<svg width="19" height="19" viewBox="0 0 19 19" fill="none" xmlns="http://www.w3.org/2000/svg">
<path d="M6.86412 10.4821C6.86412 10.2441 6.66669 10.0513 6.42309 10.0513H4.88403C4.64071 10.0513 4.44324 10.2441 4.44324 10.4821V11.9868C4.44324 12.2252 4.64071 12.4181 4.88403 12.4181H6.42309C6.66669 12.4181 6.86412 12.2252 6.86412 11.9868V10.4821Z" fill="#222322"/>
<path d="M10.7103 10.4821C10.7103 10.2441 10.5128 10.0513 10.2697 10.0513H8.73047C8.48714 10.0513 8.28967 10.2441 8.28967 10.4821V11.9868C8.28967 12.2252 8.48714 12.4181 8.73047 12.4181H10.2697C10.5128 12.4181 10.7103 12.2252 10.7103 11.9868V10.4821Z" fill="#222322"/>
<path d="M14.5567 10.4821C14.5567 10.2441 14.3592 10.0513 14.1159 10.0513H12.5769C12.3333 10.0513 12.1358 10.2441 12.1358 10.4821V11.9868C12.1358 12.2252 12.3333 12.4181 12.5769 12.4181H14.1159C14.3592 12.4181 14.5567 12.2252 14.5567 11.9868V10.4821Z" fill="#222322"/>
<path d="M6.86412 14.2436C6.86412 14.0052 6.66669 13.8125 6.42309 13.8125H4.88403C4.64071 13.8125 4.44324 14.0052 4.44324 14.2436V15.748C4.44324 15.9862 4.64071 16.179 4.88403 16.179H6.42309C6.66669 16.179 6.86412 15.9862 6.86412 15.748V14.2436Z" fill="#222322"/>
<path d="M10.7103 14.2436C10.7103 14.0052 10.5128 13.8125 10.2697 13.8125H8.73047C8.48714 13.8125 8.28967 14.0052 8.28967 14.2436V15.748C8.28967 15.9862 8.48714 16.179 8.73047 16.179H10.2697C10.5128 16.179 10.7103 15.9862 10.7103 15.748V14.2436Z" fill="#222322"/>
<path d="M14.5567 14.2436C14.5567 14.0052 14.3592 13.8125 14.1161 13.8125H12.5769C12.3333 13.8125 12.1358 14.0052 12.1358 14.2436V15.748C12.1358 15.9862 12.3333 16.179 12.5769 16.179H14.1161C14.3592 16.179 14.5567 15.9862 14.5567 15.748V14.2436Z" fill="#222322"/>
<path d="M17.3088 2.11567V4.41403C17.3088 5.45286 16.447 6.29 15.3847 6.29H14.171C13.1087 6.29 12.2354 5.45286 12.2354 4.41403V2.10742H6.76462V4.41403C6.76462 5.45286 5.89138 6.29 4.82923 6.29H3.61523C2.55304 6.29 1.69122 5.45286 1.69122 4.41403V2.11567C0.762858 2.14304 0 2.8942 0 3.81747V17.2869C0 18.2276 0.779695 19.0001 1.74166 19.0001H17.2583C18.2189 19.0001 19 18.226 19 17.2869V3.81747C19 2.8942 18.2372 2.14304 17.3088 2.11567ZM16.7451 16.4482C16.7451 16.8547 16.408 17.1845 15.9921 17.1845H2.97473C2.55885 17.1845 2.22178 16.8547 2.22178 16.4482V9.4907C2.22178 9.08404 2.55881 8.75425 2.97473 8.75425H15.9921C16.408 8.75425 16.745 9.08404 16.745 9.4907L16.7451 16.4482Z" fill="#222322"/>
<path d="M3.61109 5.05775H4.81168C5.17609 5.05775 5.47156 4.76926 5.47156 4.41292V0.645058C5.47156 0.288686 5.17609 0 4.81168 0H3.61109C3.24663 0 2.9512 0.288686 2.9512 0.645058V4.41292C2.9512 4.76926 3.24663 5.05775 3.61109 5.05775Z" fill="#222322"/>
<path d="M14.1556 5.05775H15.3562C15.7204 5.05775 16.0159 4.76926 16.0159 4.41292V0.645058C16.0159 0.288686 15.7204 0 15.3562 0H14.1556C13.7913 0 13.4958 0.288686 13.4958 0.645058V4.41292C13.4958 4.76926 13.7913 5.05775 14.1556 5.05775Z" fill="#222322"/>
</svg>
