<svg width="19" height="19" viewBox="0 0 19 19" fill="none" xmlns="http://www.w3.org/2000/svg">
<path fill-rule="evenodd" clip-rule="evenodd" d="M0.395913 19H9.50004C14.7383 19 19 14.7383 19 9.5C19 4.26168 14.7382 0 9.50004 0C4.26184 0 6.85448e-05 4.26168 6.85448e-05 9.5C6.85448e-05 11.8299 0.844304 14.0463 2.3859 15.7867L0.116035 18.2629C0.00277752 18.3864 -0.0312145 18.572 0.0302384 18.7335C0.0913202 18.895 0.235898 19 0.395913 19ZM6.30433 9.04753C6.30433 10.0469 5.48677 10.8571 4.47825 10.8571C3.46973 10.8571 2.65216 10.0469 2.65216 9.04753C2.65216 8.04815 3.46973 7.238 4.47825 7.238C5.48677 7.238 6.30433 8.04815 6.30433 9.04753ZM10.8696 9.04753C10.8696 10.0469 10.052 10.8571 9.04348 10.8571C8.03496 10.8571 7.21739 10.0469 7.21739 9.04753C7.21739 8.04815 8.03496 7.238 9.04348 7.238C10.052 7.238 10.8696 8.04815 10.8696 9.04753ZM13.6087 10.8571C14.6172 10.8571 15.4348 10.0469 15.4348 9.04753C15.4348 8.04815 14.6172 7.238 13.6087 7.238C12.6002 7.238 11.7826 8.04815 11.7826 9.04753C11.7826 10.0469 12.6002 10.8571 13.6087 10.8571Z" fill="#222322"/>
</svg>
