<svg width="19" height="19" viewBox="0 0 19 19" fill="none" xmlns="http://www.w3.org/2000/svg">
<path d="M1.425 0C1.04707 0 0.684612 0.150134 0.417373 0.417373C0.150134 0.684612 0 1.04707 0 1.425V13.775C0 14.1529 0.150134 14.5154 0.417373 14.7826C0.684612 15.0499 1.04707 15.2 1.425 15.2H6.65V12.0498C6.65 11.325 6.9502 10.6343 7.4803 10.1403L11.4 6.47995V6.175C11.4 5.79707 11.2499 5.43461 10.9826 5.16737C10.7154 4.90013 10.3529 4.75 9.975 4.75H8.55V1.425C8.55 1.04707 8.39987 0.684612 8.13263 0.417373C7.86539 0.150134 7.50293 0 7.125 0H1.425ZM3.8 3.5625C3.8 3.75147 3.72493 3.93269 3.59131 4.06631C3.45769 4.19993 3.27647 4.275 3.0875 4.275C2.89853 4.275 2.71731 4.19993 2.58369 4.06631C2.45007 3.93269 2.375 3.75147 2.375 3.5625C2.375 3.37353 2.45007 3.19231 2.58369 3.05869C2.71731 2.92507 2.89853 2.85 3.0875 2.85C3.27647 2.85 3.45769 2.92507 3.59131 3.05869C3.72493 3.19231 3.8 3.37353 3.8 3.5625ZM3.0875 7.125C2.89853 7.125 2.71731 7.04993 2.58369 6.91631C2.45007 6.78269 2.375 6.60147 2.375 6.4125C2.375 6.22353 2.45007 6.04231 2.58369 5.90869C2.71731 5.77507 2.89853 5.7 3.0875 5.7C3.27647 5.7 3.45769 5.77507 3.59131 5.90869C3.72493 6.04231 3.8 6.22353 3.8 6.4125C3.8 6.60147 3.72493 6.78269 3.59131 6.91631C3.45769 7.04993 3.27647 7.125 3.0875 7.125ZM3.8 9.2625C3.8 9.45147 3.72493 9.63269 3.59131 9.76631C3.45769 9.89993 3.27647 9.975 3.0875 9.975C2.89853 9.975 2.71731 9.89993 2.58369 9.76631C2.45007 9.63269 2.375 9.45147 2.375 9.2625C2.375 9.07353 2.45007 8.89231 2.58369 8.75869C2.71731 8.62507 2.89853 8.55 3.0875 8.55C3.27647 8.55 3.45769 8.62507 3.59131 8.75869C3.72493 8.89231 3.8 9.07353 3.8 9.2625ZM5.4625 4.275C5.27353 4.275 5.09231 4.19993 4.95869 4.06631C4.82507 3.93269 4.75 3.75147 4.75 3.5625C4.75 3.37353 4.82507 3.19231 4.95869 3.05869C5.09231 2.92507 5.27353 2.85 5.4625 2.85C5.65147 2.85 5.83269 2.92507 5.96631 3.05869C6.09993 3.19231 6.175 3.37353 6.175 3.5625C6.175 3.75147 6.09993 3.93269 5.96631 4.06631C5.83269 4.19993 5.65147 4.275 5.4625 4.275ZM6.175 6.4125C6.175 6.60147 6.09993 6.78269 5.96631 6.91631C5.83269 7.04993 5.65147 7.125 5.4625 7.125C5.27353 7.125 5.09231 7.04993 4.95869 6.91631C4.82507 6.78269 4.75 6.60147 4.75 6.4125C4.75 6.22353 4.82507 6.04231 4.95869 5.90869C5.09231 5.77507 5.27353 5.7 5.4625 5.7C5.65147 5.7 5.83269 5.77507 5.96631 5.90869C6.09993 6.04231 6.175 6.22353 6.175 6.4125ZM5.4625 9.975C5.36893 9.975 5.27628 9.95657 5.18984 9.92076C5.10339 9.88496 5.02485 9.83248 4.95869 9.76631C4.89252 9.70015 4.84004 9.62161 4.80424 9.53516C4.76843 9.44872 4.75 9.35607 4.75 9.2625C4.75 9.16893 4.76843 9.07628 4.80424 8.98984C4.84004 8.90339 4.89252 8.82485 4.95869 8.75869C5.02485 8.69252 5.10339 8.64004 5.18984 8.60424C5.27628 8.56843 5.36893 8.55 5.4625 8.55C5.65147 8.55 5.83269 8.62507 5.96631 8.75869C6.09993 8.89231 6.175 9.07353 6.175 9.2625C6.175 9.45147 6.09993 9.63269 5.96631 9.76631C5.83269 9.89993 5.65147 9.975 5.4625 9.975ZM14.4343 7.06705C14.1265 6.77976 13.7211 6.61998 13.3 6.61998C12.8789 6.61998 12.4735 6.77976 12.1657 7.06705L8.1282 10.8347C7.96145 10.9904 7.82851 11.1786 7.73764 11.3878C7.64677 11.597 7.59992 11.8227 7.6 12.0507V17.575C7.6 17.9529 7.75013 18.3154 8.01737 18.5826C8.28461 18.8499 8.64707 19 9.025 19H10.925C11.3029 19 11.6654 18.8499 11.9326 18.5826C12.1999 18.3154 12.35 17.9529 12.35 17.575V15.2H14.25V17.575C14.25 17.9529 14.4001 18.3154 14.6674 18.5826C14.9346 18.8499 15.2971 19 15.675 19H17.575C17.9529 19 18.3154 18.8499 18.5826 18.5826C18.8499 18.3154 19 17.9529 19 17.575V12.0507C19.0001 11.8227 18.9532 11.597 18.8624 11.3878C18.7715 11.1786 18.6385 10.9904 18.4718 10.8347L14.4343 7.06705ZM13.1376 8.10825C13.1816 8.06697 13.2397 8.044 13.3 8.044C13.3603 8.044 13.4184 8.06697 13.4624 8.10825L17.4999 11.8769C17.5237 11.8992 17.5426 11.9261 17.5555 11.956C17.5685 11.9859 17.5751 12.0182 17.575 12.0507V17.575H15.675V15.2C15.675 14.8221 15.5249 14.4596 15.2576 14.1924C14.9904 13.9251 14.6279 13.775 14.25 13.775H12.35C11.9721 13.775 11.6096 13.9251 11.3424 14.1924C11.0751 14.4596 10.925 14.8221 10.925 15.2V17.575H9.025V12.0507C9.02504 12.0181 9.03181 11.9858 9.04489 11.9559C9.05796 11.926 9.07706 11.8991 9.101 11.8769L13.1376 8.10825Z" fill="#222322"/>
</svg>
