<svg width="19" height="24" viewBox="0 0 19 24" fill="none" xmlns="http://www.w3.org/2000/svg">
<path d="M5.75556 9.80554C5.75556 11.907 7.42905 13.6206 9.49205 13.6206C11.5551 13.6206 13.2285 11.907 13.2285 9.80554C13.2285 7.70407 11.5502 5.99048 9.49205 5.99048C7.43386 5.99048 5.75556 7.70407 5.75556 9.80554Z" fill="#222322"/>
<path fill-rule="evenodd" clip-rule="evenodd" d="M9.15626 0.00490998C9.26686 0 9.38227 0 9.49288 0C14.7297 0 18.9904 4.35025 19 9.69231C19 10.311 18.9423 10.9296 18.8269 11.5336C18.8125 11.6268 18.7932 11.725 18.7644 11.8429C18.6201 12.5008 18.4037 13.1489 18.1248 13.7627C17.1534 16.1047 15.0135 19.748 10.3729 23.6809C10.1276 23.8871 9.81988 24 9.50249 24C9.18511 24 8.87734 23.8871 8.63209 23.6809C3.98673 19.743 1.84678 16.1047 0.870584 13.743C0.596479 13.144 0.38008 12.5008 0.235814 11.838C0.182917 11.6268 0.16849 11.5139 0.16849 11.5139C0.000179857 10.6203 -0.0431 9.68249 0.0434595 8.74959C0.495493 3.9329 4.41472 0.171849 9.15626 0.00490998ZM4.57739 9.80063C4.57739 7.03631 6.77985 4.78263 9.49205 4.78263C12.2043 4.78263 14.4067 7.04122 14.4067 9.80554C14.4067 12.5699 12.2043 14.8235 9.49205 14.8235C6.77985 14.8235 4.57739 12.565 4.57739 9.80063Z" fill="#222322"/>
<path d="M5.75555 9.80554C5.75555 11.907 7.42904 13.6206 9.49204 13.6206C11.555 13.6206 13.2285 11.907 13.2285 9.80554C13.2285 7.70406 11.5502 5.99048 9.49204 5.99048C7.43385 5.99048 5.75555 7.70406 5.75555 9.80554Z" fill="#6ADF6A"/>
</svg>
