<svg width="21" height="18" viewBox="0 0 21 18" fill="none" xmlns="http://www.w3.org/2000/svg">
<path d="M13.3486 8.04223C13.3486 8.04223 11.8874 12.1045 11.1935 12.8137C10.8585 13.1469 10.4039 13.3366 9.92818 13.3417C9.45244 13.3468 8.99382 13.1668 8.6516 12.8407C8.30938 12.5147 8.11109 12.0687 8.09965 11.5995C8.08821 11.1303 8.26455 10.6755 8.5905 10.3336C9.28445 9.62393 13.3486 8.04223 13.3486 8.04223Z" fill="#222322"/>
<path d="M17.2179 17C18.1012 16.1305 18.8017 15.0974 19.2791 13.96C19.7566 12.8227 20.0015 11.6034 20 10.3724C20 5.19615 15.7467 1 10.5 1C5.25328 1 1 5.19615 1 10.3724C1 12.9605 2.06309 15.3036 3.78214 17M10.5 1.4463V3.23152M17.2156 4.63381L15.8096 5.75716M18.879 11.8153L17.1161 11.4136M2.12055 11.8153L3.88393 11.4136M3.7844 4.63381L5.1904 5.75716M13.3486 8.04223C13.3486 8.04223 11.8874 12.1045 11.1935 12.8137C10.8585 13.1469 10.4039 13.3366 9.92818 13.3417C9.45244 13.3468 8.99382 13.1668 8.6516 12.8407C8.30938 12.5147 8.11109 12.0687 8.09965 11.5995C8.08821 11.1303 8.26455 10.6755 8.5905 10.3336C9.28445 9.62393 13.3486 8.04223 13.3486 8.04223Z" stroke="#222322" stroke-width="2" stroke-linecap="round" stroke-linejoin="round"/>
</svg>
